<mxfile host="app.diagrams.net" modified="2023-07-06T09:57:43.010Z" agent="Mozilla/5.0 (Windows NT 10.0; Win64; x64) AppleWebKit/537.36 (KHTML, like Gecko) Chrome/114.0.0.0 Safari/537.36 Edg/114.0.1823.67" etag="L4BQaf5sa4_VgEFxL0yn" version="21.3.8" type="device">
  <diagram name="Page-1" id="YO1LSuli9nep0GKKaFbU">
    <mxGraphModel dx="899" dy="576" grid="1" gridSize="10" guides="1" tooltips="1" connect="1" arrows="1" fold="1" page="1" pageScale="1" pageWidth="827" pageHeight="1169" math="0" shadow="0">
      <root>
        <mxCell id="0" />
        <mxCell id="1" parent="0" />
        <mxCell id="qxTonABJLy9SjzmWTAGb-1" value="Scene" style="swimlane;childLayout=stackLayout;horizontal=1;startSize=50;horizontalStack=0;rounded=1;fontSize=14;fontStyle=0;strokeWidth=2;resizeParent=0;resizeLast=1;shadow=0;dashed=0;align=center;arcSize=4;whiteSpace=wrap;html=1;" vertex="1" parent="1">
          <mxGeometry x="40" y="60" width="160" height="280" as="geometry" />
        </mxCell>
        <mxCell id="qxTonABJLy9SjzmWTAGb-2" value="int width;&lt;br&gt;int height;&lt;br&gt;Item* items[width][height];" style="align=left;strokeColor=none;fillColor=none;spacingLeft=4;fontSize=12;verticalAlign=top;resizable=0;rotatable=0;part=1;html=1;" vertex="1" parent="qxTonABJLy9SjzmWTAGb-1">
          <mxGeometry y="50" width="160" height="230" as="geometry" />
        </mxCell>
        <mxCell id="qxTonABJLy9SjzmWTAGb-3" value="Item" style="swimlane;childLayout=stackLayout;horizontal=1;startSize=50;horizontalStack=0;rounded=1;fontSize=14;fontStyle=0;strokeWidth=2;resizeParent=0;resizeLast=1;shadow=0;dashed=0;align=center;arcSize=4;whiteSpace=wrap;html=1;" vertex="1" parent="1">
          <mxGeometry x="440" y="60" width="160" height="280" as="geometry" />
        </mxCell>
        <mxCell id="qxTonABJLy9SjzmWTAGb-4" value="int row;&lt;br&gt;int col;&lt;br&gt;bool mine;&lt;br&gt;bool sweeped;&lt;br&gt;bool flagged;&lt;br&gt;int numOfMines;&lt;br&gt;&lt;br&gt;void updateItem();" style="align=left;strokeColor=none;fillColor=none;spacingLeft=4;fontSize=12;verticalAlign=top;resizable=0;rotatable=0;part=1;html=1;" vertex="1" parent="qxTonABJLy9SjzmWTAGb-3">
          <mxGeometry y="50" width="160" height="230" as="geometry" />
        </mxCell>
      </root>
    </mxGraphModel>
  </diagram>
</mxfile>
